<svg id="visual" viewBox="0 0 1200 100" width="1200" height="100" xmlns="http://www.w3.org/2000/svg" xmlns:xlink="http://www.w3.org/1999/xlink" version="1.1"><rect x="0" y="0" width="1200" height="100" fill="#3C3C3C"></rect><path d="M0 44L171 36L343 47L514 18L686 48L857 40L1029 39L1200 19L1200 101L1029 101L857 101L686 101L514 101L343 101L171 101L0 101Z" fill="#2c4653"></path><path d="M0 61L171 50L343 64L514 62L686 58L857 67L1029 62L1200 42L1200 101L1029 101L857 101L686 101L514 101L343 101L171 101L0 101Z" fill="#8e9aa3"></path><path d="M0 84L171 75L343 63L514 69L686 64L857 72L1029 79L1200 73L1200 101L1029 101L857 101L686 101L514 101L343 101L171 101L0 101Z" fill="#f8f9fa"></path></svg>