<svg id="visual" viewBox="0 0 1200 200" width="1200" height="200" xmlns="http://www.w3.org/2000/svg" xmlns:xlink="http://www.w3.org/1999/xlink" version="1.1"><rect x="0" y="0" width="1200" height="200" fill="#3C3C3C"></rect><path d="M0 140L171 129L343 146L514 117L686 147L857 122L1029 150L1200 139L1200 201L1029 201L857 201L686 201L514 201L343 201L171 201L0 201Z" fill="#ffffff"></path><path d="M0 160L171 151L343 154L514 158L686 157L857 138L1029 138L1200 141L1200 201L1029 201L857 201L686 201L514 201L343 201L171 201L0 201Z" fill="#b5bdc2"></path><path d="M0 172L171 176L343 153L514 163L686 152L857 176L1029 152L1200 174L1200 201L1029 201L857 201L686 201L514 201L343 201L171 201L0 201Z" fill="#6e7f89"></path><path d="M0 187L171 183L343 175L514 178L686 182L857 183L1029 184L1200 169L1200 201L1029 201L857 201L686 201L514 201L343 201L171 201L0 201Z" fill="#2c4653"></path></svg>