<svg id="visual" viewBox="0 0 1400 400" width="1400" height="400" xmlns="http://www.w3.org/2000/svg" xmlns:xlink="http://www.w3.org/1999/xlink" version="1.1"><rect x="0" y="0" width="1400" height="400" fill="#3C3C3C"></rect><path d="M0 244L200 278L400 250L600 239L800 244L1000 251L1200 286L1400 299L1400 401L1200 401L1000 401L800 401L600 401L400 401L200 401L0 401Z" fill="#2c4653"></path><path d="M0 304L200 302L400 284L600 280L800 299L1000 271L1200 311L1400 295L1400 401L1200 401L1000 401L800 401L600 401L400 401L200 401L0 401Z" fill="#6e7f89"></path><path d="M0 334L200 304L400 317L600 349L800 316L1000 352L1200 348L1400 347L1400 401L1200 401L1000 401L800 401L600 401L400 401L200 401L0 401Z" fill="#b5bdc2"></path><path d="M0 362L200 365L400 350L600 349L800 344L1000 345L1200 365L1400 355L1400 401L1200 401L1000 401L800 401L600 401L400 401L200 401L0 401Z" fill="#ffffff"></path></svg>